<svg xmlns="http://www.w3.org/2000/svg" width="18" height="20" viewBox="0 0 18 20" fill="none">
  <path d="M0 7.97817C0 7.36099 0.284946 6.77838 0.772119 6.39946L7.77212 0.955018C8.49434 0.39329 9.50566 0.393291 10.2279 0.955019L17.2279 6.39946C17.7151 6.77838 18 7.36099 18 7.97817V19C18 19.5523 17.5523 20 17 20H12.0001C11.4478 20 11.0001 19.5523 11.0001 19V14C11.0001 13.4477 10.5524 13 10.0001 13H8.00012C7.44784 13 7.00012 13.4477 7.00012 14V19C7.00012 19.5523 6.55241 20 6.00012 20H1C0.447715 20 0 19.5523 0 19V7.97817Z" fill="#C2C2C2"/>
</svg>
