<svg xmlns="http://www.w3.org/2000/svg" width="24" height="24" viewBox="0 0 24 24" fill="none">
  <path d="M3 9.97817C3 9.36099 3.28495 8.77838 3.77212 8.39946L10.7721 2.95502C11.4943 2.39329 12.5057 2.39329 13.2279 2.95502L20.2279 8.39946C20.7151 8.77838 21 9.36099 21 9.97817V21C21 21.5523 20.5523 22 20 22H15.0001C14.4478 22 14.0001 21.5523 14.0001 21V16C14.0001 15.4477 13.5524 15 13.0001 15H11.0001C10.4478 15 10.0001 15.4477 10.0001 16V21C10.0001 21.5523 9.55241 22 9.00012 22H4C3.44772 22 3 21.5523 3 21V9.97817Z" fill="#7F4AF4"/>
</svg>