<svg xmlns="http://www.w3.org/2000/svg" width="25" height="24" viewBox="0 0 25 24" fill="none">
  <mask id="mask0_2073_40199" style="mask-type:alpha" maskUnits="userSpaceOnUse" x="0" y="0" width="25" height="24">
    <rect x="0.333984" width="24" height="24" fill="#D9D9D9"/>
  </mask>
  <g mask="url(#mask0_2073_40199)">
    <path d="M5.64173 20.5C5.13657 20.5 4.70898 20.325 4.35898 19.975C4.00898 19.625 3.83398 19.1974 3.83398 18.6923V5.30775C3.83398 4.80258 4.00898 4.375 4.35898 4.025C4.70898 3.675 5.13657 3.5 5.64173 3.5H19.0262C19.5314 3.5 19.959 3.675 20.309 4.025C20.659 4.375 20.834 4.80258 20.834 5.30775V18.6923C20.834 19.1974 20.659 19.625 20.309 19.975C19.959 20.325 19.5314 20.5 19.0262 20.5H5.64173ZM7.58398 16.75H14.084V15.25H7.58398V16.75ZM7.58398 12.75H17.084V11.25H7.58398V12.75ZM7.58398 8.75H17.084V7.25H7.58398V8.75Z" fill="#C2C2C2"/>
  </g>
</svg>