<svg xmlns="http://www.w3.org/2000/svg" width="25" height="24" viewBox="0 0 25 24" fill="none">
  <path fill-rule="evenodd" clip-rule="evenodd" d="M10.8672 4.11853C7.55348 4.11853 4.86719 6.80482 4.86719 10.1185C4.86719 13.4322 7.55348 16.1185 10.8672 16.1185C14.1809 16.1185 16.8672 13.4322 16.8672 10.1185C16.8672 6.80482 14.1809 4.11853 10.8672 4.11853ZM2.86719 10.1185C2.86719 5.70025 6.44891 2.11853 10.8672 2.11853C15.2855 2.11853 18.8672 5.70025 18.8672 10.1185C18.8672 12.0082 18.212 13.7449 17.1163 15.1138L21.4698 19.4673C21.8603 19.8578 21.8603 20.4909 21.4698 20.8815C21.0793 21.272 20.4461 21.272 20.0556 20.8815L15.682 16.5079C14.3425 17.519 12.6748 18.1185 10.8672 18.1185C6.44891 18.1185 2.86719 14.5368 2.86719 10.1185Z" fill="#C2C2C2"/>
</svg>