<svg width="25" height="25" viewBox="0 0 25 25" fill="none" xmlns="http://www.w3.org/2000/svg">
<mask id="mask0_1572_93157" style="mask-type:alpha" maskUnits="userSpaceOnUse" x="0" y="0" width="25" height="25">
<rect x="0.0158691" y="0.930298" width="24" height="24" fill="#7F4AF4"/>
</mask>
<g mask="url(#mask0_1572_93157)">
<path d="M11.2659 16.6225H12.7754V12.0668L14.6254 13.9168L15.6696 12.8725L12.0254 9.2283L8.37162 12.8725L9.41587 13.9168L11.2659 12.0668V16.6225ZM12.0176 22.4303C10.7036 22.4303 9.46854 22.181 8.31237 21.6823C7.1562 21.1836 6.15054 20.5069 5.29537 19.652C4.4402 18.7972 3.76312 17.792 3.26412 16.6363C2.76529 15.4806 2.51587 14.2459 2.51587 12.932C2.51587 11.618 2.7652 10.383 3.26387 9.2268C3.76254 8.07063 4.43929 7.06496 5.29412 6.2098C6.14895 5.35463 7.1542 4.67755 8.30987 4.17855C9.46554 3.67971 10.7003 3.4303 12.0141 3.4303C13.3281 3.4303 14.5632 3.67963 15.7194 4.1783C16.8755 4.67696 17.8812 5.35371 18.7364 6.20855C19.5915 7.06338 20.2686 8.06863 20.7676 9.2243C21.2665 10.38 21.5159 11.6147 21.5159 12.9285C21.5159 14.2425 21.2665 15.4776 20.7679 16.6338C20.2692 17.79 19.5925 18.7956 18.7376 19.6508C17.8828 20.506 16.8775 21.183 15.7219 21.682C14.5662 22.1809 13.3315 22.4303 12.0176 22.4303Z" fill="#7F4AF4"/>
</g>
</svg>
