<svg width="27" height="25" viewBox="0 0 27 25" fill="none" xmlns="http://www.w3.org/2000/svg">
<g clipPath="url(#clip0_893_36486)">
<path d="M5.7597 9.53088C5.26563 9.53088 4.86523 9.92936 4.86523 10.4211C4.86523 10.9128 5.26563 11.3131 5.7597 11.3131C6.25376 11.3131 6.65416 10.9146 6.65416 10.4211C6.65416 9.92753 6.25376 9.53088 5.7597 9.53088Z" fill="#DCDCDC"/>
<path d="M14.6029 9.43762C14.0703 9.43762 13.6387 9.86717 13.6387 10.3973C13.6387 10.9273 14.0703 11.3569 14.6029 11.3569C15.1356 11.3569 15.5672 10.9273 15.5672 10.3973C15.5672 9.86717 15.1356 9.43762 14.6029 9.43762Z" fill="#DCDCDC"/>
<path d="M22.6091 0.674805H3.5646C1.64344 0.674805 0.0859375 2.22484 0.0859375 4.1368V15.3855C0.0859375 17.2975 1.64344 18.8475 3.5646 18.8475H10.2905L12.579 24.2124C12.579 24.2124 12.737 24.6766 13.1172 24.6766C13.4992 24.6766 13.6553 24.2124 13.6553 24.2124L15.9438 18.8475H22.6091C24.5303 18.8475 26.0878 17.2975 26.0878 15.3855V4.1368C26.0878 2.22484 24.5303 0.674805 22.6091 0.674805ZM8.25364 10.6184C8.24262 12.6748 6.10656 12.7333 6.10656 12.7333C5.28006 12.7333 4.81354 12.1886 4.81354 12.1886V12.5596H3.25788V6.17305C3.25788 6.17305 3.25053 6.17123 3.25788 6.1694V6.17305C3.35522 6.18768 4.81354 6.1694 4.81354 6.1694V8.61144C5.17904 7.98996 6.23697 8.00093 6.23697 8.00093C8.54016 8.21479 8.2518 10.6184 8.2518 10.6184H8.25364ZM10.994 8.19834V12.5706H9.47136V8.24221C9.47136 7.65363 8.73669 7.48912 8.73669 7.48912V5.96285C11.1684 6.06155 10.994 8.19834 10.994 8.19834ZM14.603 12.737C13.1925 12.737 12.0501 11.6896 12.0501 10.3991C12.0501 9.10862 13.1925 8.06125 14.603 8.06125C16.0136 8.06125 17.156 9.10862 17.156 10.3991C17.156 11.6896 16.0136 12.737 14.603 12.737ZM22.9452 12.737C22.9452 12.737 22.9673 14.9578 20.699 14.9578H20.0084V13.5193H20.4253C20.4253 13.5193 21.3785 13.607 21.3675 12.1447C21.3675 12.1447 21.182 12.737 19.8449 12.737C19.8449 12.737 17.9495 12.6017 17.9495 10.761V10.0628C17.9495 10.0628 17.9935 8.15447 20.0745 8.00276C20.0745 8.00276 20.8955 7.91502 21.4006 8.59133V8.1234H22.9452V12.7388V12.737Z" fill="#DCDCDC"/>
<path d="M20.5242 9.45959C20.0045 9.45959 19.582 9.88001 19.582 10.3973C19.582 10.9146 20.0045 11.335 20.5242 11.335C21.044 11.335 21.4665 10.9146 21.4665 10.3973C21.4665 9.88001 21.044 9.45959 20.5242 9.45959Z" fill="#DCDCDC"/>
</g>
<defs>
<clipPath id="clip0_893_36486">
<rect width="26" height="24" fill="white" transform="translate(0.0859375 0.674805)"/>
</clipPath>
</defs>
</svg>
