<svg width="24" height="25" viewBox="0 0 24 25" fill="none" xmlns="http://www.w3.org/2000/svg">
<mask id="mask0_875_63170" style="mask-type:alpha" maskUnits="userSpaceOnUse" x="0" y="0" width="24" height="25">
<rect y="0.75" width="24" height="24" fill="#D9D9D9"/>
</mask>
<g mask="url(#mask0_875_63170)">
<path d="M12 14.827C11.7552 14.827 11.5465 14.7408 11.374 14.5683C11.2017 14.3959 11.1155 14.1873 11.1155 13.9423C11.1155 13.6974 11.2017 13.4888 11.374 13.3163C11.5465 13.1439 11.7552 13.0578 12 13.0578C12.2448 13.0578 12.4535 13.1439 12.626 13.3163C12.7983 13.4888 12.8845 13.6974 12.8845 13.9423C12.8845 14.1873 12.7983 14.3959 12.626 14.5683C12.4535 14.7408 12.2448 14.827 12 14.827ZM8 14.827C7.75517 14.827 7.5465 14.7408 7.374 14.5683C7.20167 14.3959 7.1155 14.1873 7.1155 13.9423C7.1155 13.6974 7.20167 13.4888 7.374 13.3163C7.5465 13.1439 7.75517 13.0578 8 13.0578C8.24483 13.0578 8.4535 13.1439 8.626 13.3163C8.79833 13.4888 8.8845 13.6974 8.8845 13.9423C8.8845 14.1873 8.79833 14.3959 8.626 14.5683C8.4535 14.7408 8.24483 14.827 8 14.827ZM16 14.827C15.7552 14.827 15.5465 14.7408 15.374 14.5683C15.2017 14.3959 15.1155 14.1873 15.1155 13.9423C15.1155 13.6974 15.2017 13.4888 15.374 13.3163C15.5465 13.1439 15.7552 13.0578 16 13.0578C16.2448 13.0578 16.4535 13.1439 16.626 13.3163C16.7983 13.4888 16.8845 13.6974 16.8845 13.9423C16.8845 14.1873 16.7983 14.3959 16.626 14.5683C16.4535 14.7408 16.2448 14.827 16 14.827ZM12 18.75C11.7552 18.75 11.5465 18.6638 11.374 18.4913C11.2017 18.3189 11.1155 18.1103 11.1155 17.8655C11.1155 17.6205 11.2017 17.4118 11.374 17.2395C11.5465 17.067 11.7552 16.9808 12 16.9808C12.2448 16.9808 12.4535 17.067 12.626 17.2395C12.7983 17.4118 12.8845 17.6205 12.8845 17.8655C12.8845 18.1103 12.7983 18.3189 12.626 18.4913C12.4535 18.6638 12.2448 18.75 12 18.75ZM8 18.75C7.75517 18.75 7.5465 18.6638 7.374 18.4913C7.20167 18.3189 7.1155 18.1103 7.1155 17.8655C7.1155 17.6205 7.20167 17.4118 7.374 17.2395C7.5465 17.067 7.75517 16.9808 8 16.9808C8.24483 16.9808 8.4535 17.067 8.626 17.2395C8.79833 17.4118 8.8845 17.6205 8.8845 17.8655C8.8845 18.1103 8.79833 18.3189 8.626 18.4913C8.4535 18.6638 8.24483 18.75 8 18.75ZM16 18.75C15.7552 18.75 15.5465 18.6638 15.374 18.4913C15.2017 18.3189 15.1155 18.1103 15.1155 17.8655C15.1155 17.6205 15.2017 17.4118 15.374 17.2395C15.5465 17.067 15.7552 16.9808 16 16.9808C16.2448 16.9808 16.4535 17.067 16.626 17.2395C16.7983 17.4118 16.8845 17.6205 16.8845 17.8655C16.8845 18.1103 16.7983 18.3189 16.626 18.4913C16.4535 18.6638 16.2448 18.75 16 18.75ZM5.30775 22.25C4.80258 22.25 4.375 22.075 4.025 21.725C3.675 21.375 3.5 20.9474 3.5 20.4423V7.05777C3.5 6.5526 3.675 6.12502 4.025 5.77502C4.375 5.42502 4.80258 5.25002 5.30775 5.25002H6.69225V3.13477H8.23075V5.25002H15.8077V3.13477H17.3077V5.25002H18.6923C19.1974 5.25002 19.625 5.42502 19.975 5.77502C20.325 6.12502 20.5 6.5526 20.5 7.05777V20.4423C20.5 20.9474 20.325 21.375 19.975 21.725C19.625 22.075 19.1974 22.25 18.6923 22.25H5.30775ZM5.30775 20.75H18.6923C18.7692 20.75 18.8398 20.7179 18.9038 20.6538C18.9679 20.5898 19 20.5193 19 20.4423V11.0578H5V20.4423C5 20.5193 5.03208 20.5898 5.09625 20.6538C5.16025 20.7179 5.23075 20.75 5.30775 20.75Z" fill="#757575"/>
</g>
</svg>
