<svg width="25" height="24" viewBox="0 0 25 24" fill="none" xmlns="http://www.w3.org/2000/svg">
<mask id="mask0_1625_47495" style="mask-type:alpha" maskUnits="userSpaceOnUse" x="0" y="0" width="25" height="24">
<rect x="0.25" width="24" height="24" fill="#D9D9D9"/>
</mask>
<g mask="url(#mask0_1625_47495)">
<path d="M8.65 16.3077L12.25 12.7078L15.85 16.3077L16.5577 15.6L12.9578 12L16.5577 8.4L15.85 7.69225L12.25 11.2923L8.65 7.69225L7.94225 8.4L11.5423 12L7.94225 15.6L8.65 16.3077ZM12.2533 21C11.0088 21 9.83867 20.7638 8.743 20.2915C7.6475 19.8192 6.6945 19.1782 5.884 18.3685C5.0735 17.5588 4.43192 16.6067 3.95925 15.512C3.48642 14.4175 3.25 13.2479 3.25 12.0033C3.25 10.7588 3.48617 9.58867 3.9585 8.493C4.43083 7.3975 5.07183 6.4445 5.8815 5.634C6.69117 4.8235 7.64333 4.18192 8.738 3.70925C9.8325 3.23642 11.0021 3 12.2467 3C13.4912 3 14.6613 3.23617 15.757 3.7085C16.8525 4.18083 17.8055 4.82183 18.616 5.6315C19.4265 6.44117 20.0681 7.39333 20.5408 8.488C21.0136 9.5825 21.25 10.7521 21.25 11.9967C21.25 13.2412 21.0138 14.4113 20.5415 15.507C20.0692 16.6025 19.4282 17.5555 18.6185 18.366C17.8088 19.1765 16.8567 19.8181 15.762 20.2908C14.6675 20.7636 13.4979 21 12.2533 21Z" fill="#C2C2C2"/>
</g>
</svg>
