<svg width="74" height="64" viewBox="0 0 74 64" fill="none" xmlns="http://www.w3.org/2000/svg">
<g id="Vector">
<path d="M64.97 17.0681C63.518 14.6175 62.1991 11.7615 61.0738 8.91153C59.6157 5.35362 57.0868 -1.38704 51.7991 0.25274C46.3419 1.88042 42.1008 16.2694 35.9903 16.2573C30.6118 16.227 25.1425 1.43266 20.3932 0.270893C13.2844 -1.55042 11.179 11.5134 8.75897 15.6401C6.26634 21.1887 3.10216 25.0492 1.54125 30.7188C-4.33941 52.7985 11.1487 63.9986 36.8978 63.9986C68.9812 63.9986 78.2983 42.7722 70.8991 26.9734C69.3321 23.5002 66.9545 20.4747 65.0124 17.1468L64.9579 17.056L64.97 17.0681Z" fill="#DCDCDC"/>
<path d="M36.801 44.9505C37.9036 44.9505 38.7975 44.0565 38.7975 42.9537C38.7975 41.8509 37.9036 40.9569 36.801 40.9569C35.6983 40.9569 34.8045 41.8509 34.8045 42.9537C34.8045 44.0565 35.6983 44.9505 36.801 44.9505Z" fill="white"/>
<path d="M20.5747 38.0101C21.6093 39.8799 23.6179 41.1142 25.7536 41.1929C27.8892 41.2716 30.037 40.0795 31.1865 38.2522C31.8097 37.2598 30.2367 36.3462 29.6196 37.3385C28.7907 38.6515 27.2782 39.4381 25.7536 39.3776C24.229 39.3171 22.8737 38.4095 22.1417 37.0904C21.573 36.0678 20.006 36.9815 20.5747 38.0041V38.0101Z" fill="white"/>
<path d="M42.4215 38.0101C43.4561 39.8799 45.4647 41.1142 47.6003 41.1929C49.736 41.2716 51.8838 40.0795 53.0333 38.2522C53.6564 37.2598 52.0834 36.3462 51.4663 37.3385C50.6375 38.6515 49.125 39.4381 47.6003 39.3776C46.0757 39.3171 44.7205 38.4095 43.9884 37.0904C43.4197 36.0678 41.8528 36.9815 42.4215 38.0041V38.0101Z" fill="white"/>
</g>
</svg>
