<svg width="20" height="20" viewBox="0 0 20 20" fill="none" xmlns="http://www.w3.org/2000/svg">
<g id="border_color">
<mask id="mask0_890_31487" style="mask-type:alpha" maskUnits="userSpaceOnUse" x="0" y="0" width="20" height="20">
<rect id="Bounding box" width="20" height="20" fill="#D9D9D9"/>
</mask>
<g mask="url(#mask0_890_31487)">
<path id="border_color_2" d="M1.66602 19.9999V17.4999H18.3327V19.9999H1.66602ZM4.99935 13.6778H6.02977L12.9464 6.77388L12.4225 6.24201L11.9033 5.73076L4.99935 12.6474V13.6778ZM3.74935 14.9278V12.1153L13.0908 2.7868C13.2115 2.6661 13.3485 2.57478 13.5018 2.51284C13.655 2.45089 13.8145 2.41992 13.9802 2.41992C14.146 2.41992 14.3066 2.45089 14.4619 2.51284C14.6171 2.57478 14.7594 2.67041 14.8887 2.79971L15.8904 3.81409C16.0197 3.93478 16.1132 4.07305 16.1708 4.22888C16.2284 4.38458 16.2573 4.54555 16.2573 4.7118C16.2573 4.86763 16.228 5.02256 16.1696 5.17659C16.1111 5.33076 16.018 5.47166 15.8904 5.5993L6.56185 14.9278H3.74935ZM12.9464 6.77388L12.4225 6.24201L11.9033 5.73076L12.9464 6.77388Z" fill="#2A2A2A"/>
</g>
</g>
</svg>
