<svg width="17" height="17" viewBox="0 0 17 17" fill="none" xmlns="http://www.w3.org/2000/svg">
<g id="edit">
<mask id="mask0_1723_24817" style="mask-type:alpha" maskUnits="userSpaceOnUse" x="0" y="0" width="17" height="17">
<rect id="Bounding box" x="0.429688" y="0.165039" width="16" height="16" fill="#D9D9D9"/>
</mask>
<g mask="url(#mask0_1723_24817)">
<path id="edit_2" d="M3.76172 12.8316H4.60272L11.4271 6.00729L10.5861 5.16629L3.76172 11.9906V12.8316ZM2.76172 13.8316V11.5753L11.5554 2.78546C11.6562 2.6939 11.7674 2.62318 11.8892 2.57329C12.0111 2.52329 12.1389 2.49829 12.2726 2.49829C12.4062 2.49829 12.5357 2.52201 12.6609 2.56946C12.7862 2.6169 12.8972 2.69235 12.9937 2.79579L13.8079 3.62012C13.9113 3.71668 13.9851 3.82779 14.0291 3.95346C14.0731 4.07912 14.0951 4.20479 14.0951 4.33046C14.0951 4.46457 14.0722 4.59251 14.0264 4.71429C13.9806 4.83618 13.9078 4.94751 13.8079 5.04829L5.01805 13.8316H2.76172ZM10.9992 5.59412L10.5861 5.16629L11.4271 6.00729L10.9992 5.59412Z" fill="white"/>
</g>
</g>
</svg>
