<svg width="19" height="19" viewBox="0 0 19 19" fill="none" xmlns="http://www.w3.org/2000/svg">
<g clipPath="url(#clip0_326_1115)">
<path d="M17.0098 9.64688C17.0098 9.03263 16.9573 8.442 16.8598 7.875H9.08984V11.2258H13.5298C13.3386 12.3086 12.7573 13.2261 11.8836 13.8403V16.0138H14.5498C16.1098 14.5057 17.0098 12.285 17.0098 9.64688Z" fill="#4285F4"/>
<path d="M9.08978 18.1125C11.3173 18.1125 13.1848 17.3368 14.5498 16.0138L11.8835 13.8403C11.1448 14.3601 10.1998 14.6672 9.08978 14.6672C6.94103 14.6672 5.12228 13.1434 4.47353 11.0959H1.71729V13.3403C3.07478 16.1713 5.86478 18.1125 9.08978 18.1125Z" fill="#34A853"/>
<path d="M4.47359 11.0959C4.30859 10.5761 4.21484 10.0209 4.21484 9.45C4.21484 8.87907 4.30859 8.32388 4.47359 7.80413V5.55975H1.71734C1.13984 6.76688 0.839335 8.09914 0.839844 9.45C0.839844 10.8478 1.15859 12.1708 1.71734 13.3403L4.47359 11.0959Z" fill="#FBBC05"/>
<path d="M9.08979 4.23279C10.301 4.23279 11.3885 4.66985 12.2435 5.52823L14.6098 3.04366C13.181 1.64585 11.3135 0.787476 9.08979 0.787476C5.86479 0.787476 3.07479 2.72866 1.71729 5.55973L4.47354 7.8041C5.12228 5.7566 6.94104 4.23279 9.08979 4.23279Z" fill="#EA4335"/>
</g>
<defs>
<clipPath id="clip0_326_1115">
<rect width="18" height="18.9" fill="white" transform="translate(0.0898438)"/>
</clipPath>
</defs>
</svg>
