<svg width="24" height="25" viewBox="0 0 24 25" fill="none" xmlns="http://www.w3.org/2000/svg">
<mask id="mask0_875_65485" style="mask-type:alpha" maskUnits="userSpaceOnUse" x="0" y="0" width="24" height="25">
<rect y="0.75" width="24" height="24" fill="#D9D9D9"/>
</mask>
<g mask="url(#mask0_875_65485)">
<path d="M1.79785 20.0576V17.8344C1.79785 17.3191 1.93085 16.8591 2.19685 16.4546C2.46285 16.0501 2.8181 15.7355 3.2626 15.5106C4.21294 15.0458 5.16852 14.6874 6.12935 14.4354C7.09035 14.1836 8.14644 14.0576 9.2976 14.0576C10.4489 14.0576 11.505 14.1836 12.4659 14.4354C13.4269 14.6874 14.3825 15.0458 15.3329 15.5106C15.7774 15.7355 16.1326 16.0501 16.3986 16.4546C16.6646 16.8591 16.7976 17.3191 16.7976 17.8344V20.0576H1.79785ZM18.7976 20.0576V17.7114C18.7976 17.0551 18.6369 16.4295 18.3156 15.8346C17.9941 15.24 17.5381 14.7297 16.9476 14.3039C17.6181 14.4039 18.2547 14.5586 18.8574 14.7681C19.4599 14.9778 20.0349 15.2256 20.5824 15.5114C21.099 15.7871 21.498 16.112 21.7794 16.4861C22.0607 16.8601 22.2014 17.2686 22.2014 17.7114V20.0576H18.7976ZM9.2976 12.4421C8.3351 12.4421 7.51119 12.0995 6.82585 11.4141C6.14052 10.7286 5.79785 9.90464 5.79785 8.94214C5.79785 7.97964 6.14052 7.15572 6.82585 6.47039C7.51119 5.78489 8.3351 5.44214 9.2976 5.44214C10.2601 5.44214 11.0841 5.78489 11.7696 6.47039C12.4549 7.15572 12.7976 7.97964 12.7976 8.94214C12.7976 9.90464 12.4549 10.7286 11.7696 11.4141C11.0841 12.0995 10.2601 12.4421 9.2976 12.4421ZM17.9321 8.94214C17.9321 9.90464 17.5894 10.7286 16.9041 11.4141C16.2188 12.0995 15.3949 12.4421 14.4324 12.4421C14.3195 12.4421 14.1759 12.4293 14.0016 12.4036C13.8271 12.378 13.6835 12.3498 13.5709 12.3191C13.9652 11.845 14.2683 11.319 14.4801 10.7411C14.6918 10.1633 14.7976 9.56331 14.7976 8.94114C14.7976 8.31881 14.6896 7.72105 14.4736 7.14789C14.2576 6.57489 13.9567 6.04739 13.5709 5.56539C13.7144 5.51406 13.8579 5.48072 14.0016 5.46539C14.1451 5.44989 14.2887 5.44214 14.4324 5.44214C15.3949 5.44214 16.2188 5.78489 16.9041 6.47039C17.5894 7.15572 17.9321 7.97964 17.9321 8.94214Z" fill="#757575"/>
</g>
</svg>
