<svg width="17" height="16" viewBox="0 0 17 16" fill="none" xmlns="http://www.w3.org/2000/svg">
<path id="info" d="M7.7487 11.958H8.9987V7.16634H7.7487V11.958ZM8.3737 5.74009C8.56439 5.74009 8.72425 5.67558 8.85328 5.54655C8.98231 5.41752 9.04682 5.25766 9.04682 5.06697C9.04682 4.87627 8.98231 4.71641 8.85328 4.58738C8.72425 4.45849 8.56439 4.39405 8.3737 4.39405C8.183 4.39405 8.02314 4.45849 7.89411 4.58738C7.76509 4.71641 7.70057 4.87627 7.70057 5.06697C7.70057 5.25766 7.76509 5.41752 7.89411 5.54655C8.02314 5.67558 8.183 5.74009 8.3737 5.74009ZM8.37516 15.9163C7.28016 15.9163 6.25092 15.7086 5.28745 15.293C4.32398 14.8775 3.48592 14.3135 2.77328 13.6011C2.06064 12.8888 1.49641 12.0511 1.08057 11.088C0.664878 10.125 0.457031 9.09599 0.457031 8.00113C0.457031 6.90613 0.664809 5.8769 1.08036 4.91342C1.49592 3.94995 2.05988 3.1119 2.77224 2.39926C3.4846 1.68662 4.32231 1.12238 5.28536 0.706549C6.24842 0.290855 7.27738 0.0830078 8.37224 0.0830078C9.46724 0.0830078 10.4965 0.290785 11.4599 0.706341C12.4234 1.1219 13.2615 1.68586 13.9741 2.39822C14.6868 3.11058 15.251 3.94829 15.6668 4.91134C16.0825 5.8744 16.2904 6.90335 16.2904 7.99822C16.2904 9.09322 16.0826 10.1225 15.667 11.0859C15.2515 12.0494 14.6875 12.8875 13.9752 13.6001C13.2628 14.3127 12.4251 14.877 11.462 15.2928C10.499 15.7085 9.47002 15.9163 8.37516 15.9163Z" fill="#C2C2C2"/>
</svg>
