<svg width="25" height="25" viewBox="0 0 25 25" fill="none" xmlns="http://www.w3.org/2000/svg">
<path d="M7.11606 0.75873C5.83926 0.81897 4.96733 1.02273 4.20509 1.32225C3.41621 1.62969 2.74757 2.04225 2.08228 2.70994C1.417 3.37762 1.00732 4.04674 0.702039 4.83682C0.406598 5.60075 0.206437 6.47339 0.150037 7.75091C0.093637 9.02844 0.0811569 9.43908 0.087397 12.6978C0.093637 15.9565 0.108037 16.365 0.169957 17.6452C0.230917 18.9218 0.433958 19.7934 0.733479 20.5559C1.0414 21.3448 1.45348 22.0132 2.1214 22.6787C2.78933 23.3442 3.45797 23.753 4.24997 24.0587C5.01317 24.3537 5.88606 24.5548 7.16334 24.6107C8.44063 24.6667 8.85175 24.6796 12.1095 24.6734C15.3673 24.6671 15.7775 24.6527 17.0574 24.592C18.3373 24.5313 19.2044 24.3268 19.9671 24.0287C20.756 23.7201 21.4249 23.3087 22.09 22.6406C22.755 21.9724 23.1644 21.3028 23.4695 20.5122C23.7652 19.749 23.966 18.8762 24.0215 17.5998C24.0774 16.3189 24.0906 15.91 24.0844 12.6517C24.0781 9.39348 24.0635 8.985 24.0028 7.70531C23.942 6.42563 23.7388 5.55659 23.4395 4.79362C23.1311 4.00474 22.7195 3.33682 22.0518 2.67082C21.3841 2.00481 20.714 1.59561 19.9237 1.29129C19.16 0.995851 18.2876 0.79449 17.0103 0.73929C15.7331 0.68409 15.3219 0.66993 12.063 0.67617C8.80399 0.68241 8.39599 0.69633 7.11606 0.75873ZM7.25622 22.4519C6.08622 22.401 5.45093 22.2066 5.02757 22.0439C4.46693 21.8279 4.06757 21.5668 3.64565 21.149C3.22373 20.7311 2.96453 20.3303 2.74565 19.7709C2.58125 19.3475 2.38324 18.713 2.32852 17.5429C2.269 16.2784 2.25652 15.8987 2.24956 12.6949C2.2426 9.49116 2.25484 9.11196 2.31028 7.84691C2.3602 6.67787 2.55581 6.04187 2.71829 5.61875C2.93429 5.05739 3.19445 4.65874 3.61325 4.23706C4.03205 3.81538 4.43165 3.5557 4.99157 3.33682C5.41445 3.1717 6.04902 2.97538 7.21854 2.9197C8.48407 2.8597 8.86327 2.8477 12.0666 2.84074C15.2698 2.83378 15.65 2.84578 16.916 2.90146C18.0851 2.95234 18.7213 3.14602 19.1439 3.30946C19.7048 3.52546 20.1039 3.7849 20.5256 4.20442C20.9473 4.62394 21.2072 5.02211 21.4261 5.58323C21.5915 6.00491 21.7878 6.63923 21.843 7.80947C21.9032 9.075 21.9169 9.45444 21.9227 12.6575C21.9284 15.8605 21.9172 16.2409 21.8617 17.5055C21.8106 18.6755 21.6167 19.311 21.4537 19.7349C21.2377 20.2953 20.9773 20.6949 20.5583 21.1163C20.1392 21.5378 19.7401 21.7974 19.1799 22.0163C18.7575 22.1812 18.1223 22.378 16.9537 22.4337C15.6882 22.4932 15.309 22.5057 12.1045 22.5126C8.89999 22.5196 8.52199 22.5066 7.25646 22.4519M17.0389 6.26123C17.0394 6.54606 17.1243 6.82434 17.2829 7.0609C17.4416 7.29745 17.6668 7.48164 17.9302 7.59018C18.1935 7.69872 18.4831 7.72672 18.7624 7.67066C19.0416 7.61459 19.298 7.47697 19.499 7.2752C19.7 7.07342 19.8367 6.81657 19.8918 6.53711C19.9468 6.25765 19.9177 5.96815 19.8082 5.70521C19.6987 5.44228 19.5137 5.21772 19.2766 5.05994C19.0394 4.90217 18.7608 4.81826 18.476 4.81882C18.0942 4.81959 17.7283 4.97197 17.4588 5.24246C17.1893 5.51295 17.0383 5.8794 17.0389 6.26123ZM5.92446 12.6868C5.93118 16.09 8.69503 18.8426 12.0975 18.8361C15.5 18.8296 18.2545 16.066 18.248 12.6628C18.2415 9.25956 15.477 6.50627 12.074 6.51299C8.67103 6.51971 5.91798 9.28404 5.92446 12.6868ZM8.0859 12.6825C8.08434 11.8913 8.31741 11.1175 8.75564 10.4588C9.19388 9.80011 9.81759 9.28617 10.5479 8.98197C11.2782 8.67777 12.0824 8.59696 12.8586 8.74977C13.6348 8.90258 14.3483 9.28214 14.9089 9.84045C15.4694 10.3988 15.8518 11.1108 16.0077 11.8864C16.1636 12.662 16.0859 13.4665 15.7846 14.198C15.4833 14.9295 14.9718 15.5552 14.3149 15.9961C13.658 16.4369 12.8851 16.6731 12.0939 16.6746C11.5686 16.6757 11.0482 16.5733 10.5625 16.3733C10.0767 16.1733 9.63515 15.8795 9.26296 15.5088C8.89077 15.138 8.59526 14.6976 8.39329 14.2127C8.19133 13.7277 8.08688 13.2078 8.0859 12.6825Z" fill="#DCDCDC"/>
</svg>
