<svg width="20" height="27" viewBox="0 0 20 27" fill="none" xmlns="http://www.w3.org/2000/svg">
<path d="M2.41033 26.667C1.74744 26.667 1.18 26.431 0.708 25.959C0.236 25.487 0 24.9195 0 24.2567V11.744C0 11.0811 0.236 10.5137 0.708 10.0417C1.18 9.56966 1.74744 9.33366 2.41033 9.33366H4V6.66699C4 5.0021 4.58378 3.58588 5.75133 2.41832C6.91889 1.25077 8.33511 0.666992 10 0.666992C11.6649 0.666992 13.0811 1.25077 14.2487 2.41832C15.4162 3.58588 16 5.0021 16 6.66699V9.33366H17.5897C18.2526 9.33366 18.82 9.56966 19.292 10.0417C19.764 10.5137 20 11.0811 20 11.744V24.2567C20 24.9195 19.764 25.487 19.292 25.959C18.82 26.431 18.2526 26.667 17.5897 26.667H2.41033ZM10 20.3337C10.6478 20.3337 11.1987 20.1068 11.6527 19.653C12.1064 19.199 12.3333 18.6481 12.3333 18.0003C12.3333 17.3525 12.1064 16.8017 11.6527 16.3477C11.1987 15.8939 10.6478 15.667 10 15.667C9.35222 15.667 8.80133 15.8939 8.34733 16.3477C7.89356 16.8017 7.66667 17.3525 7.66667 18.0003C7.66667 18.6481 7.89356 19.199 8.34733 19.653C8.80133 20.1068 9.35222 20.3337 10 20.3337ZM6 9.33366H14V6.66699C14 5.55588 13.6111 4.61144 12.8333 3.83366C12.0556 3.05588 11.1111 2.66699 10 2.66699C8.88889 2.66699 7.94444 3.05588 7.16667 3.83366C6.38889 4.61144 6 5.55588 6 6.66699V9.33366Z" fill="white"/>
</svg>
