<svg width="143" height="25" viewBox="0 0 143 25" fill="none" xmlns="http://www.w3.org/2000/svg">
<g clip-path="url(#clip0_856_43149)">
<g clip-path="url(#clip1_856_43149)">
<path d="M0.0859375 0.674805H7.39594L11.7259 14.5948L15.7559 4.7148H21.4759L25.4659 14.5248L29.7859 0.674805H37.1259L29.3459 24.6048H23.5559L18.6159 13.2548L13.6459 24.6048H7.86594L0.0859375 0.674805Z" fill="#7F4AF4"/>
<path d="M58.7459 13.4148H55.7959V10.9948L62.3959 4.1748H64.5759V8.3348H68.9059V13.1148H64.5759V17.6148C64.5759 19.0748 65.2159 19.7248 66.7859 19.7248C67.4959 19.7248 68.2559 19.6048 69.0859 19.3248V24.0748C67.6459 24.4448 66.3259 24.6348 65.0659 24.6348C60.8259 24.6348 58.7459 22.6148 58.7459 18.5548V13.4148Z" fill="#7F4AF4"/>
<path d="M95.2459 2.9048V9.5448C96.3859 8.6748 97.8259 8.2148 99.4759 8.2148C103.556 8.2148 106.256 11.0948 106.256 15.4748V24.6248H100.426V16.0348C100.426 14.2648 99.4459 13.1848 97.8459 13.1848C96.2459 13.1848 95.2359 14.2748 95.2359 16.0348V24.6248H89.4059V2.9048H95.2459Z" fill="#7F4AF4"/>
<path d="M131.746 13.4148H128.796V10.9948L135.396 4.1748H137.576V8.3348H141.906V13.1148H137.576V17.6148C137.576 19.0748 138.216 19.7248 139.786 19.7248C140.496 19.7248 141.256 19.6048 142.086 19.3248V24.0748C140.646 24.4448 139.326 24.6348 138.066 24.6348C133.826 24.6348 131.746 22.6148 131.746 18.5548V13.4148Z" fill="#7F4AF4"/>
<path d="M121.666 7.8548V9.8648C120.326 8.5948 118.466 7.8548 116.346 7.8548C111.746 7.8548 108.486 11.2948 108.486 16.1948C108.486 21.0948 111.736 24.5348 116.346 24.5348C118.466 24.5348 120.326 23.7948 121.666 22.4948V24.6048H126.576V7.8548H121.666ZM116.396 20.4148V19.5348C114.526 19.5348 113.136 18.1948 113.136 16.1948C113.136 14.1948 114.436 12.8548 116.446 12.8548C118.456 12.8548 119.756 14.1748 119.756 16.1948C119.756 19.3848 116.406 20.4148 116.406 20.4148H116.396Z" fill="#7F4AF4"/>
<path d="M48.6159 7.8548V9.8648C47.2759 8.5948 45.4159 7.8548 43.2959 7.8548C38.6959 7.8548 35.4359 11.2948 35.4359 16.1948C35.4359 21.0948 38.6859 24.5348 43.2959 24.5348C45.4159 24.5348 47.2759 23.7948 48.6159 22.4948V24.6048H53.5259V7.8548H48.6159ZM43.3859 19.5348C41.3859 19.5348 40.0759 18.2148 40.0759 16.1948C40.0759 14.1748 41.3759 12.8548 43.3859 12.8548C45.3959 12.8548 46.6959 14.1748 46.6959 16.1948C46.6959 18.2148 45.3959 19.5348 43.3859 19.5348Z" fill="#7F4AF4"/>
<path d="M114.526 16.6548C114.802 16.6548 115.026 16.4309 115.026 16.1548C115.026 15.8787 114.802 15.6548 114.526 15.6548C114.25 15.6548 114.026 15.8787 114.026 16.1548C114.026 16.4309 114.25 16.6548 114.526 16.6548Z" fill="#7F4AF4"/>
<path d="M116.466 16.6548C116.742 16.6548 116.966 16.4309 116.966 16.1548C116.966 15.8787 116.742 15.6548 116.466 15.6548C116.19 15.6548 115.966 15.8787 115.966 16.1548C115.966 16.4309 116.19 16.6548 116.466 16.6548Z" fill="#7F4AF4"/>
<path d="M118.406 16.6548C118.682 16.6548 118.906 16.4309 118.906 16.1548C118.906 15.8787 118.682 15.6548 118.406 15.6548C118.13 15.6548 117.906 15.8787 117.906 16.1548C117.906 16.4309 118.13 16.6548 118.406 16.6548Z" fill="#7F4AF4"/>
<path d="M71.9659 16.0948C71.9659 10.9148 75.4659 7.5148 80.8259 7.5148C82.5759 7.5148 84.4259 7.8948 86.2059 8.5948V13.7148C84.5459 12.9548 83.1459 12.6048 81.8459 12.6048C79.3959 12.6048 77.9559 13.9048 77.9559 16.1048C77.9559 18.3048 79.4259 19.5948 81.9359 19.5948C83.3359 19.5948 84.8359 19.1848 86.3359 18.4548V23.4748C84.6459 24.2648 82.8359 24.6848 80.9559 24.6848C75.5059 24.6848 71.9759 21.2848 71.9759 16.1048L71.9659 16.0948Z" fill="#7F4AF4"/>
</g>
</g>
<defs>
<clipPath id="clip0_856_43149">
<rect width="142" height="24" fill="white" transform="translate(0.0859375 0.674805)"/>
</clipPath>
<clipPath id="clip1_856_43149">
<rect width="142" height="24" fill="white" transform="translate(0.0859375 0.674805)"/>
</clipPath>
</defs>
</svg>
