<svg width="58" height="64" viewBox="0 0 58 64" fill="none" xmlns="http://www.w3.org/2000/svg">
<path id="Vector" d="M29.0042 -0.00195312C11.439 -0.00195312 0 10.8576 0 27.3938C0 43.93 11.2865 54.5938 28.6145 54.7555V63.9895C28.6145 63.9895 53.1278 56.2278 57.2967 33.9215C57.3645 33.581 57.4492 33.2406 57.5086 32.8917C57.695 31.7087 57.7712 30.4661 57.839 29.2066C57.8729 28.5853 58 28.0236 58 27.3853C58 10.8576 46.5525 -0.00195312 29.0042 -0.00195312ZM18.4465 30.9172C16.7772 30.9172 15.4215 29.5555 15.4215 27.8789C15.4215 26.2023 16.7772 24.8406 18.4465 24.8406C20.1157 24.8406 21.4714 26.2023 21.4714 27.8789C21.4714 29.5555 20.1157 30.9172 18.4465 30.9172ZM29.3601 30.9172C27.6909 30.9172 26.3351 29.5555 26.3351 27.8789C26.3351 26.2023 27.6909 24.8406 29.3601 24.8406C31.0294 24.8406 32.3851 26.2023 32.3851 27.8789C32.3851 29.5555 31.0294 30.9172 29.3601 30.9172ZM39.5535 30.9172C37.8843 30.9172 36.5286 29.5555 36.5286 27.8789C36.5286 26.2023 37.8843 24.8406 39.5535 24.8406C41.2228 24.8406 42.5785 26.2023 42.5785 27.8789C42.5785 29.5555 41.2228 30.9172 39.5535 30.9172Z" fill="#DCDCDC"/>
</svg>
