<svg width="74" height="64" viewBox="0 0 74 64" fill="none" xmlns="http://www.w3.org/2000/svg">
<path id="Vector" d="M71.1163 26.9845C69.5493 23.5113 67.1717 20.4859 65.2296 17.1579L65.1751 17.0671C63.7231 14.6165 62.4042 11.7605 61.2789 8.91055C59.8208 5.35264 57.2919 -1.38802 52.0042 0.251764C46.547 1.87945 42.3059 16.2684 36.1954 16.2563C30.8169 16.226 25.3476 1.43168 20.5983 0.269916C13.4895 -1.55139 11.3841 11.5124 8.96404 15.6391C6.47142 21.1878 3.30724 25.0482 1.74632 30.7179C-4.13433 52.7975 11.3538 63.9976 37.1029 63.9976C69.1863 63.9976 78.5034 42.7712 71.1042 26.9784L71.1163 26.9845ZM28.536 39.6066C26.1281 39.6066 24.8817 37.7611 24.8817 35.129C24.8817 32.9809 25.8982 30.1975 27.326 28.0494H30.6354C29.6189 29.9313 29.0926 31.4016 28.9776 32.7933C30.7866 32.9083 32.0632 34.185 32.0632 36.1455C32.0632 38.106 30.6717 39.6066 28.5239 39.6066H28.536ZM37.0061 44.9495C35.905 44.9495 35.0095 44.054 35.0095 42.9527C35.0095 41.8515 35.905 40.9559 37.0061 40.9559C38.1072 40.9559 39.0026 41.8515 39.0026 42.9527C39.0026 44.054 38.1072 44.9495 37.0061 44.9495ZM41.9369 35.129C41.9369 32.9809 42.9533 30.1975 44.3811 28.0494H47.6905C46.6741 29.9313 46.1477 31.4016 46.0327 32.7933C47.7994 32.9083 49.1183 34.185 49.1183 36.1455C49.1183 38.106 47.7268 39.6066 45.579 39.6066C43.1711 39.6066 41.9308 37.7611 41.9308 35.129H41.9369Z" fill="#DCDCDC"/>
</svg>
