<svg width="24" height="25" viewBox="0 0 24 25" fill="none" xmlns="http://www.w3.org/2000/svg">
<path d="M16.8413 5.91406V13.6338H15.6841V11.583H12.6372V12.6963H6.66064V6.91016H12.6372V8.03809H15.6841V5.91406H16.8413ZM7.80322 11.7588H11.5093V7.84766H7.80322V11.7588ZM8.15479 16.4756C8.14746 14.9082 9.81006 14.0073 12.52 14.0146C15.2227 14.0073 16.8853 14.9082 16.8853 16.4756C16.8853 18.0283 15.2227 18.9072 12.52 18.9072C9.81006 18.9072 8.14746 18.0283 8.15479 16.4756ZM9.29736 16.4756C9.29004 17.4204 10.5205 17.999 12.52 17.999C14.5122 17.999 15.7427 17.4204 15.7427 16.4756C15.7427 15.4941 14.5122 14.9229 12.52 14.9082C10.5205 14.9229 9.29004 15.4941 9.29736 16.4756ZM12.6372 10.6162H15.6841V8.99023H12.6372V10.6162Z" fill="#424242"/>
</svg>
