<svg width="25" height="24" viewBox="0 0 25 24" fill="none" xmlns="http://www.w3.org/2000/svg">
<g id="group">
<mask id="mask0_1729_112818" style="mask-type:alpha" maskUnits="userSpaceOnUse" x="0" y="0" width="25" height="24">
<rect id="Bounding box" x="0.375" width="24" height="24" fill="#D9D9D9"/>
</mask>
<g mask="url(#mask0_1729_112818)">
<path id="group_2" d="M2.17188 19.3079V17.0846C2.17188 16.5693 2.30487 16.1094 2.57088 15.7049C2.83688 15.3004 3.19213 14.9857 3.63663 14.7609C4.58696 14.296 5.54254 13.9376 6.50338 13.6856C7.46438 13.4338 8.52046 13.3079 9.67163 13.3079C10.823 13.3079 11.879 13.4338 12.8399 13.6856C13.8009 13.9376 14.7565 14.296 15.7069 14.7609C16.1514 14.9857 16.5066 15.3004 16.7726 15.7049C17.0386 16.1094 17.1716 16.5693 17.1716 17.0846V19.3079H2.17188ZM19.1716 19.3079V16.9616C19.1716 16.3053 19.011 15.6797 18.6896 15.0849C18.3681 14.4902 17.9121 13.98 17.3216 13.5541C17.9921 13.6541 18.6287 13.8089 19.2314 14.0184C19.8339 14.228 20.4089 14.4758 20.9564 14.7616C21.473 15.0373 21.872 15.3622 22.1534 15.7364C22.4347 16.1104 22.5754 16.5188 22.5754 16.9616V19.3079H19.1716ZM9.67163 11.6924C8.70913 11.6924 7.88521 11.3497 7.19988 10.6644C6.51454 9.97888 6.17188 9.15488 6.17188 8.19238C6.17188 7.22988 6.51454 6.40597 7.19988 5.72063C7.88521 5.03513 8.70913 4.69238 9.67163 4.69238C10.6341 4.69238 11.4581 5.03513 12.1436 5.72063C12.829 6.40597 13.1716 7.22988 13.1716 8.19238C13.1716 9.15488 12.829 9.97888 12.1436 10.6644C11.4581 11.3497 10.6341 11.6924 9.67163 11.6924ZM18.3061 8.19238C18.3061 9.15488 17.9635 9.97888 17.2781 10.6644C16.5928 11.3497 15.7689 11.6924 14.8064 11.6924C14.6935 11.6924 14.55 11.6795 14.3756 11.6539C14.2011 11.6282 14.0575 11.6 13.9449 11.5694C14.3392 11.0952 14.6423 10.5692 14.8541 9.99138C15.0658 9.41355 15.1716 8.81355 15.1716 8.19138C15.1716 7.56905 15.0636 6.9713 14.8476 6.39813C14.6316 5.82513 14.3307 5.29763 13.9449 4.81563C14.0884 4.7643 14.232 4.73097 14.3756 4.71563C14.5191 4.70013 14.6627 4.69238 14.8064 4.69238C15.7689 4.69238 16.5928 5.03513 17.2781 5.72063C17.9635 6.40597 18.3061 7.22988 18.3061 8.19238Z" fill="#7F4AF4"/>
</g>
</g>
</svg>
