<svg width="60" height="53" viewBox="0 0 60 53" fill="none" xmlns="http://www.w3.org/2000/svg">
<g id="Vector">
<path d="M52.5402 14.5549C51.3786 12.5943 50.3234 10.3095 49.4232 8.02949C48.2567 5.18312 46.2335 -0.209508 42.0033 1.10234C37.6375 2.40451 34.2445 13.9159 29.356 13.9062C25.0531 13.882 20.6776 2.04629 16.8781 1.11686C11.191 -0.340209 9.50662 10.111 7.57057 13.4124C5.57644 17.8514 3.04505 20.9398 1.7963 25.4757C-2.90831 43.1396 9.48242 52.0999 30.082 52.0999C55.7492 52.0999 63.203 35.1185 57.2836 22.4792C56.03 19.7006 54.1278 17.2802 52.5741 14.6178L52.5305 14.5452L52.5402 14.5549Z" fill="#DCDCDC"/>
<path d="M30.0048 36.8612C30.887 36.8612 31.6022 36.146 31.6022 35.2637C31.6022 34.3815 30.887 33.6662 30.0048 33.6662C29.1225 33.6662 28.4073 34.3815 28.4073 35.2637C28.4073 36.146 29.1225 36.8612 30.0048 36.8612Z" fill="white"/>
<path d="M21.3746 24.3913H23.8673C23.1026 25.8097 22.7057 26.9134 22.6234 27.959C23.9835 28.0413 24.9466 29.0046 24.9466 30.481C24.9466 31.9575 23.9012 33.0854 22.2846 33.0854C20.4744 33.0854 19.5354 31.696 19.5354 29.7162C19.5354 28.0994 20.3001 26.0081 21.3746 24.3913ZM38.1554 27.959C39.4864 28.0413 40.4786 29.0046 40.4786 30.481C40.4786 31.9575 39.4332 33.0854 37.8165 33.0854C36.0063 33.0854 35.0722 31.696 35.0722 29.7162C35.0722 28.0994 35.8369 26.0081 36.9114 24.3913H39.4041C38.6394 25.8097 38.2425 26.9134 38.1602 27.959H38.1554Z" fill="white"/>
<path d="M42.5792 17.1253C36.4226 17.1253 31.3695 21.9467 30.992 28.0122H29.0172C28.6397 21.9467 23.5866 17.1253 17.4299 17.1253C11.2733 17.1253 5.81845 22.334 5.81845 28.7383C5.81845 35.1427 11.0264 40.3514 17.4299 40.3514C23.8334 40.3514 28.6397 35.5299 29.0172 29.4645H30.992C31.3695 35.5299 36.4226 40.3514 42.5792 40.3514C48.7359 40.3514 54.1907 35.1427 54.1907 28.7383C54.1907 22.334 48.9827 17.1253 42.5792 17.1253ZM17.4299 38.8991C11.8299 38.8991 7.27048 34.3391 7.27048 28.7383C7.27048 23.1376 11.8299 18.5775 17.4299 18.5775C23.0299 18.5775 27.5894 23.1376 27.5894 28.7383C27.5894 34.3391 23.0299 38.8991 17.4299 38.8991ZM42.5792 38.8991C36.9792 38.8991 32.4198 34.3391 32.4198 28.7383C32.4198 23.1376 36.9792 18.5775 42.5792 18.5775C48.1793 18.5775 52.7387 23.1376 52.7387 28.7383C52.7387 34.3391 48.1793 38.8991 42.5792 38.8991Z" fill="#F5F5F5"/>
</g>
</svg>
