<svg width="24" height="25" viewBox="0 0 24 25" fill="none" xmlns="http://www.w3.org/2000/svg">
<mask id="mask0_875_64663" style="mask-type:alpha" maskUnits="userSpaceOnUse" x="0" y="0" width="24" height="25">
<rect y="0.75" width="24" height="24" fill="#D9D9D9"/>
</mask>
<g mask="url(#mask0_875_64663)">
<path d="M15.473 17.277L16.527 16.223L12.75 12.446V7.75H11.25V13.0538L15.473 17.277ZM12.0017 22.25C10.6877 22.25 9.45267 22.0007 8.2965 21.502C7.14033 21.0033 6.13467 20.3266 5.2795 19.4718C4.42433 18.6169 3.74725 17.6117 3.24825 16.456C2.74942 15.3003 2.5 14.0656 2.5 12.7517C2.5 11.4377 2.74933 10.2027 3.248 9.0465C3.74667 7.89033 4.42342 6.88467 5.27825 6.0295C6.13308 5.17433 7.13833 4.49725 8.294 3.99825C9.44967 3.49942 10.6844 3.25 11.9983 3.25C13.3123 3.25 14.5473 3.49933 15.7035 3.998C16.8597 4.49667 17.8653 5.17342 18.7205 6.02825C19.5757 6.88308 20.2528 7.88833 20.7518 9.044C21.2506 10.1997 21.5 11.4344 21.5 12.7483C21.5 14.0623 21.2507 15.2973 20.752 16.4535C20.2533 17.6097 19.5766 18.6153 18.7218 19.4705C17.8669 20.3257 16.8617 21.0028 15.706 21.5018C14.5503 22.0006 13.3156 22.25 12.0017 22.25Z" fill="#757575"/>
</g>
</svg>
