<svg width="20" height="20" viewBox="0 0 20 20" fill="none" xmlns="http://www.w3.org/2000/svg">
<path fill-rule="evenodd" clip-rule="evenodd" d="M8.4987 3.43211C5.73727 3.43211 3.4987 5.67068 3.4987 8.43211C3.4987 11.1935 5.73727 13.4321 8.4987 13.4321C11.2601 13.4321 13.4987 11.1935 13.4987 8.43211C13.4987 5.67068 11.2601 3.43211 8.4987 3.43211ZM1.83203 8.43211C1.83203 4.75021 4.8168 1.76544 8.4987 1.76544C12.1806 1.76544 15.1654 4.75021 15.1654 8.43211C15.1654 10.0069 14.6194 11.4541 13.7063 12.5948L17.3342 16.2227C17.6596 16.5481 17.6596 17.0758 17.3342 17.4012C17.0088 17.7267 16.4811 17.7267 16.1557 17.4012L12.5111 13.7566C11.3948 14.5992 10.0051 15.0988 8.4987 15.0988C4.8168 15.0988 1.83203 12.114 1.83203 8.43211Z" fill="#2A2A2A"/>
</svg>
