<svg xmlns="http://www.w3.org/2000/svg" width="116" height="100" viewBox="0 0 116 100" fill="none">
  <g clipPath="url(#clip0_1054_74684)">
    <path
      d="M106.461 40.4483C104.103 35.2414 100.524 30.7059 97.6013 25.7168L97.5193 25.5807C95.334 21.9069 93.3489 17.6253 91.6552 13.3528C89.4607 8.01901 85.6545 -2.08621 77.6961 0.372058C69.4827 2.81219 63.0996 24.3833 53.9027 24.3652C45.8077 24.3198 37.5761 2.14093 30.4281 0.399272C19.7288 -2.33113 16.56 17.2534 12.9177 23.4399C9.16611 31.7581 4.4038 37.5455 2.05451 46.0451C-6.7963 79.1456 16.5145 95.9363 55.2686 95.9363C103.556 95.9363 117.579 64.1148 106.443 40.4392L106.461 40.4483ZM41.6919 59.3706C38.6961 59.3706 37.1572 57.0847 37.1572 53.8282C37.1572 51.1703 38.4229 47.7233 40.1986 45.0745H44.3144C43.0487 47.4058 42.393 49.22 42.2565 50.9435C44.4965 51.0796 46.09 52.6671 46.09 55.089C46.09 57.511 44.3599 59.3706 41.701 59.3706H41.6919ZM69.6648 59.3706C66.669 59.3706 65.1301 57.0847 65.1301 53.8282C65.1301 51.1703 66.3958 47.7233 68.1715 45.0745H72.2873C71.0216 47.4058 70.3659 49.22 70.2294 50.9435C72.4694 51.0796 74.0629 52.6671 74.0629 55.089C74.0629 57.511 72.3328 59.3706 69.6739 59.3706H69.6648ZM55.1229 67.3804C53.4657 67.3804 52.118 66.0379 52.118 64.3869C52.118 62.736 53.4657 61.3935 55.1229 61.3935C56.7802 61.3935 58.1278 62.736 58.1278 64.3869C58.1278 66.0379 56.7802 67.3804 55.1229 67.3804Z"
      fill="#DCDCDC"
    />
    <path
      d="M102.126 78.1568L94.3587 69.376C93.439 68.3418 92.1005 67.9155 90.8257 68.1151L87.6751 64.5592C90.3704 61.5839 91.973 57.8193 92.228 53.7555C92.5285 48.9931 90.944 44.3941 87.7752 40.811C84.6064 37.2279 80.2266 35.0962 75.446 34.7968C70.6655 34.4975 66.0489 36.0668 62.4521 39.2326C58.8553 42.3894 56.7155 46.7526 56.415 51.5149C56.1145 56.2773 57.6989 60.8763 60.8677 64.4594C64.0365 68.0425 68.4164 70.1742 73.1969 70.4736C74.3716 70.5461 75.528 70.5098 76.6662 70.3647C79.489 70.0019 82.1752 68.9587 84.5245 67.3259L87.6751 70.8818C87.32 72.1154 87.5749 73.4942 88.4946 74.5283L96.2618 83.3092C97.6914 84.9238 100.159 85.0781 101.78 83.6539C103.401 82.2297 103.556 79.7715 102.126 78.1568ZM73.4701 66.3008C69.8096 66.0741 66.4495 64.4322 64.0183 61.6927C61.5871 58.9442 60.376 55.4246 60.6127 51.778C60.8404 48.1314 62.4885 44.7841 65.2385 42.3622C67.3237 40.5389 69.846 39.3959 72.5322 39.0512C73.4063 38.9423 74.2896 38.9061 75.1911 38.9605C78.8516 39.1873 82.2116 40.8291 84.6429 43.5686C87.0741 46.3172 88.2852 49.8368 88.0484 53.4834C87.8117 57.1299 86.1726 60.4772 83.4227 62.8992C80.6636 65.3212 77.1306 66.5276 73.4701 66.2918V66.3008Z"
      fill="#F5F5F5"
    />
    <path
      d="M101.443 99.9995C109.379 99.9995 115.812 93.5908 115.812 85.6853C115.812 77.7798 109.379 71.3711 101.443 71.3711C93.5074 71.3711 87.0742 77.7798 87.0742 85.6853C87.0742 93.5908 93.5074 99.9995 101.443 99.9995Z"
      fill="#E8E8E8"
    />
  </g>
  <defs>
    <clipPath id="clip0_1054_74684">
      <rect width="115.625" height="100" fill="white" transform="translate(0.1875)" />
    </clipPath>
  </defs>
</svg>