<svg width="24" height="25" viewBox="0 0 24 25" fill="none" xmlns="http://www.w3.org/2000/svg">
<path fill-rule="evenodd" clip-rule="evenodd" d="M12.0502 0.674805C5.43426 0.674805 0.0859375 6.1748 0.0859375 12.9791C0.0859375 18.4181 3.51279 23.0221 8.26675 24.6516C8.86112 24.7741 9.07883 24.3868 9.07883 24.0611C9.07883 23.7758 9.05924 22.7981 9.05924 21.7793C5.73108 22.5128 5.03802 20.3126 5.03802 20.3126C4.50316 18.8866 3.71067 18.5201 3.71067 18.5201C2.62137 17.7663 3.79002 17.7663 3.79002 17.7663C4.99834 17.8478 5.63239 19.0293 5.63239 19.0293C6.70186 20.9033 8.4252 20.3738 9.11851 20.0478C9.21745 19.2533 9.53459 18.7033 9.87132 18.3978C7.21688 18.1126 4.42406 17.0533 4.42406 12.3271C4.42406 10.9826 4.89916 9.88256 5.65198 9.02705C5.5332 8.72155 5.11712 7.4583 5.771 5.76755C5.771 5.76755 6.7812 5.44156 9.059 7.03055C10.0342 6.76122 11.0399 6.62421 12.0502 6.62305C13.0604 6.62305 14.0902 6.7658 15.0411 7.03055C17.3192 5.44156 18.3294 5.76755 18.3294 5.76755C18.9832 7.4583 18.5669 8.72155 18.4481 9.02705C19.2208 9.88256 19.6763 10.9826 19.6763 12.3271C19.6763 17.0533 16.8835 18.0921 14.2092 18.3978C14.6451 18.7848 15.0213 19.5181 15.0213 20.6793C15.0213 22.3293 15.0017 23.6536 15.0017 24.0608C15.0017 24.3868 15.2197 24.7741 15.8138 24.6518C20.5677 23.0218 23.9946 18.4181 23.9946 12.9791C24.0142 6.1748 18.6463 0.674805 12.0502 0.674805Z" fill="#DCDCDC"/>
</svg>
