<svg width="25" height="24" viewBox="0 0 25 24" fill="none" xmlns="http://www.w3.org/2000/svg">
<mask id="mask0_335_4079" style="mask-type:alpha" maskUnits="userSpaceOnUse" x="0" y="0" width="25" height="24">
<rect x="0.862061" width="24" height="24" fill="#5C5C5C"/>
</mask>
<g mask="url(#mask0_335_4079)">
<path d="M12.8643 15.777C13.9142 15.777 14.8058 15.4096 15.5391 14.6747C16.2724 13.9399 16.6391 13.0476 16.6391 11.9977C16.6391 10.9479 16.2717 10.0563 15.5368 9.32299C14.802 8.58965 13.9097 8.22299 12.8598 8.22299C11.81 8.22299 10.9184 8.5904 10.1851 9.32524C9.45175 10.0601 9.08509 10.9524 9.08509 12.0022C9.08509 13.0521 9.4525 13.9437 10.1873 14.677C10.9222 15.4103 11.8145 15.777 12.8643 15.777ZM12.8621 14.4C12.1954 14.4 11.6288 14.1667 11.1621 13.7C10.6954 13.2333 10.4621 12.6667 10.4621 12C10.4621 11.3333 10.6954 10.7667 11.1621 10.3C11.6288 9.83332 12.1954 9.59999 12.8621 9.59999C13.5288 9.59999 14.0954 9.83332 14.5621 10.3C15.0288 10.7667 15.2621 11.3333 15.2621 12C15.2621 12.6667 15.0288 13.2333 14.5621 13.7C14.0954 14.1667 13.5288 14.4 12.8621 14.4ZM12.8633 18.7C10.6205 18.7 8.57692 18.0907 6.73259 16.872C4.88825 15.6535 3.51092 14.0295 2.60059 12C3.51092 9.97049 4.88775 8.34649 6.73109 7.12799C8.57459 5.90932 10.6178 5.29999 12.8608 5.29999C15.1037 5.29999 17.1473 5.90932 18.9916 7.12799C20.8359 8.34649 22.2133 9.97049 23.1236 12C22.2133 14.0295 20.8364 15.6535 18.9931 16.872C17.1496 18.0907 15.1063 18.7 12.8633 18.7ZM12.8621 17.4C14.7288 17.4 16.4538 16.9167 18.0371 15.95C19.6204 14.9833 20.8371 13.6667 21.6871 12C20.8371 10.3333 19.6204 9.01665 18.0371 8.04999C16.4538 7.08332 14.7288 6.59999 12.8621 6.59999C10.9954 6.59999 9.27042 7.08332 7.68709 8.04999C6.10375 9.01665 4.88709 10.3333 4.03709 12C4.88709 13.6667 6.10375 14.9833 7.68709 15.95C9.27042 16.9167 10.9954 17.4 12.8621 17.4Z" fill="#5C5C5C"/>
</g>
</svg>
