<svg width="25" height="24" viewBox="0 0 25 24" fill="none" xmlns="http://www.w3.org/2000/svg">
<mask id="mask0_483_13787" style="mask-type:alpha" maskUnits="userSpaceOnUse" x="0" y="0" width="25" height="24">
<rect x="0.329102" width="24" height="24" fill="#5C5C5C"/>
</mask>
<g mask="url(#mask0_483_13787)">
<path fillRule="evenodd" clipRule="evenodd" d="M17.1156 6.36501C15.6358 5.65495 14.0399 5.29993 12.3279 5.29993C10.0849 5.29993 8.04163 5.90926 6.19813 7.12793C4.35479 8.34643 2.97796 9.97043 2.06763 11.9999C2.97796 14.0294 4.35529 15.6534 6.19963 16.8719C6.28221 16.9265 6.3652 16.9798 6.44859 17.032L7.39051 16.0901C7.31137 16.0445 7.23257 15.9978 7.15413 15.9499C5.57079 14.9833 4.35413 13.6666 3.50413 11.9999C4.35413 10.3333 5.57079 9.01659 7.15413 8.04993C8.73746 7.08326 10.4625 6.59993 12.3291 6.59993C13.67 6.59993 14.9378 6.84932 16.1325 7.34811L17.1156 6.36501ZM17.7932 8.23295L18.7204 7.30576C20.4338 8.50288 21.7239 10.0676 22.5906 11.9999C21.6803 14.0294 20.3035 15.6534 18.4601 16.8719C16.6166 18.0906 14.5734 18.6999 12.3304 18.6999C10.8427 18.6999 9.44274 18.4318 8.13042 17.8957L9.14156 16.8845C10.1537 17.2281 11.2163 17.3999 12.3291 17.3999C14.1958 17.3999 15.9208 16.9166 17.5041 15.9499C19.0875 14.9833 20.3041 13.6666 21.1541 11.9999C20.3566 10.4361 19.2363 9.18049 17.7932 8.23295ZM14.5496 8.93098C13.9101 8.45895 13.1692 8.22293 12.3269 8.22293C11.277 8.22293 10.3855 8.59034 9.65213 9.32518C8.91879 10.06 8.55213 10.9523 8.55213 12.0022C8.55213 12.8433 8.78799 13.5829 9.25972 14.2208L10.2553 13.2253C10.0378 12.8634 9.92913 12.455 9.92913 11.9999C9.92913 11.3333 10.1625 10.7666 10.6291 10.2999C11.0958 9.83326 11.6625 9.59993 12.3291 9.59993C12.7842 9.59993 13.1926 9.70864 13.5545 9.92606L14.5496 8.93098ZM14.653 11.3731L15.7221 10.304C15.9781 10.8134 16.1061 11.378 16.1061 11.9977C16.1061 13.0475 15.7395 13.9398 15.0061 14.6747C14.2728 15.4095 13.3812 15.7769 12.3314 15.7769C11.7105 15.7769 11.1447 15.6487 10.634 15.3922L11.7023 14.3238C11.9004 14.3746 12.1093 14.3999 12.3291 14.3999C12.9958 14.3999 13.5625 14.1666 14.0291 13.6999C14.4958 13.2333 14.7291 12.6666 14.7291 11.9999C14.7291 11.7801 14.7038 11.5712 14.653 11.3731Z" fill="#5C5C5C"/>
<rect x="4.26807" y="19.2124" width="21.6" height="1.2" transform="rotate(-45 4.26807 19.2124)" fill="#5C5C5C"/>
</g>
</svg>
