<svg xmlns="http://www.w3.org/2000/svg" width="45" height="39" viewBox="0 0 45 39" fill="none">
  <path d="M39.7993 10.234C38.9241 8.77894 38.1291 7.08314 37.4508 5.39094C36.5719 3.27839 35.0475 -0.723966 31.8602 0.249677C28.5709 1.21613 26.0145 9.75976 22.3312 9.75258C19.0892 9.73461 15.7926 0.950269 12.9298 0.260456C8.64487 -0.820971 7.37579 6.93584 5.91708 9.38611C4.41461 12.6807 2.50734 14.9729 1.56647 18.3393C-1.97819 31.4494 7.35755 38.0996 22.8782 38.0996C42.2171 38.0996 47.8331 25.4961 43.3731 16.1154C42.4286 14.0531 40.9954 12.2567 39.8248 10.2807L39.792 10.2268L39.7993 10.234Z" fill="#DCDCDC"/>
  <path d="M23.1228 25.906C23.9424 25.906 24.6068 25.2425 24.6068 24.424C24.6068 23.6055 23.9424 22.942 23.1228 22.942C22.3033 22.942 21.6389 23.6055 21.6389 24.424C21.6389 25.2425 22.3033 25.906 23.1228 25.906Z" fill="white"/>
  <path d="M19.2827 16.9764C18.6694 18.1106 18.3518 18.9967 18.2824 19.8354C19.374 19.9047 20.1443 20.6742 20.1443 21.8557C20.1443 23.0372 19.3046 23.9416 18.0086 23.9416C16.5557 23.9416 15.8036 22.8293 15.8036 21.243C15.8036 19.9485 16.4169 18.271 17.2785 16.9764H19.2827ZM28.5737 19.8354C29.6397 19.9047 30.4356 20.6742 30.4356 21.8557C30.4356 23.0372 29.5959 23.9416 28.2999 23.9416C26.847 23.9416 26.0986 22.8293 26.0986 21.243C26.0986 19.9485 26.7119 18.271 27.5734 16.9764H29.5704C28.957 18.1106 28.6394 18.9967 28.5701 19.8354H28.5737Z" fill="white"/>
  <path d="M19.3129 29.678C21.6868 28.7664 24.5554 28.7619 26.9248 29.7229C27.2621 29.8577 27.6667 29.5747 27.7566 29.2514C27.8645 28.8652 27.6262 28.5598 27.2845 28.4206C26.4617 28.0882 25.5625 27.9131 24.6903 27.7918C22.7614 27.5268 20.7831 27.6751 18.9532 28.3756C18.6115 28.5059 18.3777 28.8292 18.4811 29.2065C18.571 29.5298 18.9666 29.8083 19.3129 29.678Z" fill="white"/>
</svg>