<svg xmlns="http://www.w3.org/2000/svg" width="45" height="39" viewBox="0 0 45 39" fill="none">
  <path d="M39.5493 10.234C38.6741 8.77894 37.8791 7.08314 37.2008 5.39094C36.3219 3.27839 34.7975 -0.723966 31.6102 0.249677C28.3209 1.21613 25.7645 9.75976 22.0812 9.75258C18.8392 9.73461 15.5426 0.950269 12.6798 0.260456C8.39487 -0.820971 7.12579 6.93584 5.66708 9.38611C4.16461 12.6807 2.25734 14.9729 1.31647 18.3393C-2.22819 31.4494 7.10755 38.0996 22.6282 38.0996C41.9671 38.0996 47.5831 25.4961 43.1231 16.1154C42.1786 14.0531 40.7454 12.2567 39.5748 10.2807L39.542 10.2268L39.5493 10.234Z" fill="#2A2A2A"/>
  <path d="M22.8728 25.906C23.6924 25.906 24.3568 25.2425 24.3568 24.424C24.3568 23.6055 23.6924 22.942 22.8728 22.942C22.0533 22.942 21.3889 23.6055 21.3889 24.424C21.3889 25.2425 22.0533 25.906 22.8728 25.906Z" fill="#7F4AF4"/>
  <path d="M19.0327 16.9764C18.4194 18.1106 18.1018 18.9967 18.0324 19.8354C19.124 19.9047 19.8943 20.6742 19.8943 21.8557C19.8943 23.0372 19.0546 23.9416 17.7586 23.9416C16.3057 23.9416 15.5536 22.8293 15.5536 21.243C15.5536 19.9485 16.1669 18.271 17.0285 16.9764H19.0327ZM28.3237 19.8354C29.3897 19.9047 30.1856 20.6742 30.1856 21.8557C30.1856 23.0372 29.3459 23.9416 28.0499 23.9416C26.597 23.9416 25.8486 22.8293 25.8486 21.243C25.8486 19.9485 26.4619 18.271 27.3234 16.9764H29.3204C28.707 18.1106 28.3894 18.9967 28.3201 19.8354H28.3237Z" fill="white"/>
  <path d="M19.0629 29.678C21.4368 28.7664 24.3054 28.7619 26.6748 29.7229C27.0121 29.8577 27.4167 29.5747 27.5066 29.2514C27.6145 28.8652 27.3762 28.5598 27.0345 28.4206C26.2117 28.0882 25.3125 27.9131 24.4403 27.7918C22.5114 27.5268 20.5331 27.6751 18.7032 28.3756C18.3615 28.5059 18.1277 28.8292 18.2311 29.2065C18.321 29.5298 18.7166 29.8083 19.0629 29.678Z" fill="white"/>
</svg>