<svg xmlns="http://www.w3.org/2000/svg" width="45" height="40" viewBox="0 0 45 40" fill="none">
  <path d="M42.646 17.2444C41.7015 15.1279 40.2683 13.2842 39.0977 11.2562L39.0649 11.2009C38.1897 9.70753 37.3947 7.96712 36.7164 6.23039C35.8375 4.06224 34.3132 -0.0454438 31.1259 0.953822C27.8365 1.94571 25.2801 10.7142 21.5968 10.7068C18.3549 10.6884 15.0582 1.67285 12.1955 0.964884C7.91049 -0.145002 6.64141 7.81594 5.1827 10.3307C3.68023 13.712 1.77297 16.0608 0.832098 19.5195C-2.71257 32.9746 6.62318 39.7998 22.1439 39.7998C41.4827 39.7998 47.0988 26.8647 42.6387 17.2371L42.646 17.2444Z" fill="#DCDCDC"/>
  <path d="M18.2899 17.9829C17.6834 19.1469 17.3693 20.0563 17.3007 20.9171C18.3801 20.9882 19.1418 21.7779 19.1418 22.9905C19.1418 24.2032 18.3115 25.1313 17.03 25.1313C15.5932 25.1313 14.8495 23.9898 14.8495 22.3618C14.8495 21.0331 15.456 19.3115 16.308 17.9829H18.2899ZM27.4775 20.9171C28.5316 20.9882 29.3186 21.7779 29.3186 22.9905C29.3186 24.2032 28.4883 25.1313 27.2067 25.1313C25.7699 25.1313 25.0298 23.9898 25.0298 22.3618C25.0298 21.0331 25.6363 19.3115 26.4883 17.9829H28.463C27.8565 19.1469 27.5424 20.0563 27.4738 20.9171H27.4775Z" fill="white"/>
  <path d="M22.0854 24.1997C22.8947 24.1997 23.5528 24.8818 23.5528 25.7207C23.5528 26.5596 22.8947 27.2417 22.0854 27.2417C21.2761 27.2417 20.6181 26.5596 20.6181 25.7207C20.6181 24.8818 21.2761 24.1997 22.0854 24.1997Z" fill="white"/>
  <path d="M25.9828 29.2005C25.1381 30.5925 23.5909 31.5051 21.9904 31.4406C20.421 31.3761 18.945 30.4358 18.1847 29.0162C17.7668 28.2372 18.9183 27.5412 19.3362 28.3202C19.8741 29.325 20.91 30.0164 21.9904 30.0625C23.1063 30.1085 24.2222 29.5093 24.8313 28.5092C25.2893 27.7579 26.4407 28.4492 25.9828 29.2051V29.2005Z" fill="white"/>
</svg>