<svg xmlns="http://www.w3.org/2000/svg" width="45" height="38" viewBox="0 0 45 38" fill="none">
  <path d="M43.396 16.023C42.4515 13.9607 41.0183 12.1643 39.8477 10.1883L39.8149 10.1344C38.9397 8.67933 38.1447 6.98353 37.4664 5.29134C36.5875 3.17878 35.0632 -0.823575 31.8759 0.150068C28.5865 1.11653 26.0301 9.66016 22.3468 9.65297C19.1049 9.63501 15.8082 0.85066 12.9455 0.160846C8.66049 -0.92058 7.39141 6.83623 5.9327 9.28651C4.43023 12.5811 2.52297 14.8697 1.5821 18.2397C-1.96257 31.3498 7.37318 38 22.8939 38C42.2327 38 47.8488 25.3965 43.3887 16.0158L43.396 16.023Z" fill="#2A2A2A"/>
  <path d="M19.0399 16.7425C18.4334 17.8766 18.1193 18.7628 18.0507 19.6015C19.1301 19.6708 19.8918 20.4402 19.8918 21.6217C19.8918 22.8033 19.0615 23.7076 17.78 23.7076C16.3432 23.7076 15.5995 22.5954 15.5995 21.0091C15.5995 19.7145 16.206 18.0371 17.058 16.7425H19.0399ZM28.2275 19.6015C29.2816 19.6708 30.0686 20.4402 30.0686 21.6217C30.0686 22.8033 29.2383 23.7076 27.9567 23.7076C26.5199 23.7076 25.7798 22.5954 25.7798 21.0091C25.7798 19.7145 26.3863 18.0371 27.2383 16.7425H29.213C28.6065 17.8766 28.2924 18.7628 28.2238 19.6015H28.2275Z" fill="white"/>
  <path d="M22.8354 22.7999C23.6447 22.7999 24.3028 23.4645 24.3028 24.2819C24.3028 25.0993 23.6447 25.7639 22.8354 25.7639C22.0261 25.7639 21.3681 25.0993 21.3681 24.2819C21.3681 23.4645 22.0261 22.7999 22.8354 22.7999Z" fill="#7F4AF4"/>
  <path d="M26.7328 27.6725C25.8881 29.0288 24.3409 29.918 22.7404 29.8551C21.171 29.7923 19.695 28.8761 18.9347 27.4929C18.5168 26.7339 19.6683 26.0557 20.0862 26.8147C20.6241 27.7938 21.66 28.4674 22.7404 28.5123C23.8563 28.5572 24.9722 27.9734 25.5813 26.9989C26.0393 26.2668 27.1907 26.9405 26.7328 27.677V27.6725Z" fill="white"/>
</svg>