<svg xmlns="http://www.w3.org/2000/svg" width="45" height="39" viewBox="0 0 45 39" fill="none">
  <path d="M39.9321 10.4342C39.0569 8.97913 38.2619 7.28334 37.5836 5.59114C36.7047 3.47859 35.1803 -0.523771 31.9931 0.449873C28.7037 1.41633 26.1473 9.95996 22.464 9.95277C19.2221 9.93481 15.9254 1.15046 13.0626 0.460651C8.77768 -0.620776 7.5086 7.13603 6.04989 9.58631C4.54742 12.8809 2.64015 15.1731 1.69929 18.5395C-1.84538 31.6496 7.49037 38.2998 23.0111 38.2998C42.3499 38.2998 47.9659 25.6963 43.5059 16.3156C42.5614 14.2533 41.1282 12.4569 39.9576 10.4809L39.9248 10.427L39.9321 10.4342Z" fill="#2A2A2A"/>
  <path d="M19.3062 17.0423C18.6997 18.1764 18.3856 19.0626 18.317 19.9013C19.3964 19.9706 20.1581 20.74 20.1581 21.9215C20.1581 23.1031 19.3278 24.0074 18.0463 24.0074C16.6095 24.0074 15.8658 22.8952 15.8658 21.3089C15.8658 20.0143 16.4723 18.3369 17.3243 17.0423H19.3062ZM28.4938 19.9013C29.5479 19.9706 30.3349 20.74 30.3349 21.9215C30.3349 23.1031 29.5046 24.0074 28.223 24.0074C26.7862 24.0074 26.0461 22.8952 26.0461 21.3089C26.0461 20.0143 26.6526 18.3369 27.5046 17.0423H29.4793C28.8728 18.1764 28.5587 19.0626 28.4901 19.9013H28.4938Z" fill="white"/>
  <path d="M22.9527 26.6783C23.7631 26.6783 24.4201 26.0148 24.4201 25.1963C24.4201 24.3778 23.7631 23.7143 22.9527 23.7143C22.1422 23.7143 21.4853 24.3778 21.4853 25.1963C21.4853 26.0148 22.1422 26.6783 22.9527 26.6783Z" fill="#7F4AF4"/>
  <path d="M27.8235 27.8949C27.9508 27.8949 28.0454 28.0303 28.009 28.1618C27.4343 30.2571 25.3866 31.8066 22.9498 31.8066C20.5129 31.8066 18.4652 30.2571 17.8905 28.1618C17.8541 28.0303 17.9523 27.8949 18.076 27.8949H27.8235Z" fill="white"/>
</svg>