<svg xmlns="http://www.w3.org/2000/svg" width="45" height="38" viewBox="0 0 45 38" fill="none">
  <path d="M39.6821 10.1344C38.8069 8.67933 38.0119 6.98353 37.3336 5.29134C36.4547 3.17878 34.9303 -0.823575 31.7431 0.150068C28.4537 1.11653 25.8973 9.66016 22.214 9.65297C18.9721 9.63501 15.6754 0.85066 12.8126 0.160846C8.52768 -0.92058 7.2586 6.83623 5.79989 9.28651C4.29742 12.5811 2.39015 14.8733 1.44929 18.2397C-2.09538 31.3498 7.24037 38 22.7611 38C42.0999 38 47.7159 25.3965 43.2559 16.0158C42.3114 13.9535 40.8782 12.1571 39.7076 10.1811L39.6748 10.1272L39.6821 10.1344Z" fill="#DCDCDC"/>
  <path d="M19.0562 16.7425C18.4497 17.8766 18.1356 18.7628 18.067 19.6015C19.1464 19.6708 19.9081 20.4402 19.9081 21.6217C19.9081 22.8033 19.0778 23.7076 17.7963 23.7076C16.3595 23.7076 15.6158 22.5954 15.6158 21.0091C15.6158 19.7145 16.2223 18.0371 17.0743 16.7425H19.0562ZM28.2438 19.6015C29.2979 19.6708 30.0849 20.4402 30.0849 21.6217C30.0849 22.8033 29.2546 23.7076 27.973 23.7076C26.5362 23.7076 25.7961 22.5954 25.7961 21.0091C25.7961 19.7145 26.4026 18.0371 27.2546 16.7425H29.2293C28.6228 17.8766 28.3087 18.7628 28.2401 19.6015H28.2438Z" fill="white"/>
  <path d="M22.7027 26.3785C23.5131 26.3785 24.1701 25.715 24.1701 24.8965C24.1701 24.078 23.5131 23.4145 22.7027 23.4145C21.8922 23.4145 21.2353 24.078 21.2353 24.8965C21.2353 25.715 21.8922 26.3785 22.7027 26.3785Z" fill="white"/>
  <path d="M27.5735 27.5951C27.7008 27.5951 27.7954 27.7305 27.759 27.862C27.1843 29.9573 25.1366 31.5068 22.6998 31.5068C20.2629 31.5068 18.2152 29.9573 17.6405 27.862C17.6041 27.7305 17.7023 27.5951 17.826 27.5951H27.5735Z" fill="white"/>
</svg>