<svg xmlns="http://www.w3.org/2000/svg" width="45" height="39" viewBox="0 0 45 39" fill="none">
  <path d="M39.2837 10.235C38.4084 8.77991 37.6134 7.08412 36.9351 5.39192C36.0563 3.27937 34.5319 -0.722989 31.3446 0.250654C28.0552 1.21711 25.4988 9.76074 21.8156 9.75356C18.5736 9.73559 15.2769 0.951246 12.4142 0.261432C8.12924 -0.819994 6.86016 6.93682 5.40145 9.38709C3.89898 12.6817 1.99172 14.9739 1.05085 18.3403C-2.49382 31.4503 6.84193 38.1006 22.3626 38.1006C41.7015 38.1006 47.3175 25.4971 42.8575 16.1164C41.913 14.0541 40.4798 12.2577 39.3092 10.2817L39.2764 10.2278L39.2837 10.235Z" fill="#2A2A2A"/>
  <path d="M22.6072 25.907C23.4268 25.907 24.0911 25.2435 24.0911 24.425C24.0911 23.6065 23.4268 22.943 22.6072 22.943C21.7877 22.943 21.1233 23.6065 21.1233 24.425C21.1233 25.2435 21.7877 25.907 22.6072 25.907Z" fill="#7F4AF4"/>
  <path d="M18.7671 16.9774C18.1538 18.1115 17.8362 18.9977 17.7668 19.8364C18.8584 19.9057 19.6287 20.6751 19.6287 21.8567C19.6287 23.0382 18.789 23.9425 17.493 23.9425C16.04 23.9425 15.288 22.8303 15.288 21.244C15.288 19.9494 15.9013 18.272 16.7629 16.9774H18.7671ZM28.0581 19.8364C29.1241 19.9057 29.92 20.6751 29.92 21.8567C29.92 23.0382 29.0803 23.9425 27.7843 23.9425C26.3313 23.9425 25.5829 22.8303 25.5829 21.244C25.5829 19.9494 26.1962 18.272 27.0578 16.9774H29.0547C28.4414 18.1115 28.1238 18.9977 28.0544 19.8364H28.0581Z" fill="white"/>
</svg>