<svg xmlns="http://www.w3.org/2000/svg" width="45" height="40" viewBox="0 0 45 40" fill="none">
  <path d="M39.1054 11.0408C38.2341 9.57045 37.4428 7.85682 36.7676 6.14682C35.8927 4.01203 34.3753 -0.0324363 31.2026 0.951452C27.9283 1.92808 25.3836 10.5616 21.7172 10.5543C18.49 10.5362 15.2084 1.65942 12.3588 0.962343C8.09344 -0.130462 6.83016 7.70796 5.37812 10.184C3.88252 13.5133 1.98398 15.8296 1.04742 19.2314C-2.48104 32.4794 6.81201 39.1996 22.2617 39.1996C41.5121 39.1996 47.1025 26.4636 42.6629 16.9841C41.7227 14.9002 40.296 13.0849 39.1308 11.088L39.0981 11.0336L39.1054 11.0408Z" fill="#DCDCDC"/>
  <path d="M22.5052 26.8778C23.321 26.8778 23.9823 26.2073 23.9823 25.3802C23.9823 24.553 23.321 23.8825 22.5052 23.8825C21.6894 23.8825 21.028 24.553 21.028 25.3802C21.028 26.2073 21.6894 26.8778 22.5052 26.8778Z" fill="white"/>
  <path d="M18.6826 17.8542C18.0721 19.0003 17.756 19.8957 17.6869 20.7433C18.7735 20.8133 19.5403 21.5908 19.5403 22.7848C19.5403 23.9787 18.7044 24.8926 17.4144 24.8926C15.968 24.8926 15.2194 23.7687 15.2194 22.1657C15.2194 20.8575 15.83 19.1624 16.6876 17.8542H18.6826ZM27.9311 20.7433C28.9923 20.8133 29.7845 21.5908 29.7845 22.7848C29.7845 23.9787 28.9487 24.8926 27.6586 24.8926C26.2123 24.8926 25.4673 23.7687 25.4673 22.1657C25.4673 20.8575 26.0778 19.1624 26.9354 17.8542H28.9232C28.3127 19.0003 27.9966 19.8957 27.9275 20.7433H27.9311Z" fill="white"/>
</svg>